# xmcd
#
# Track frame offsets:
#	150
#	13421
#	28771
#	41230
#	52017
#	66326
#	79656
#	90771
#	102280
#	113782
#	123929
#	137426
#	150617
#	162519
#	181342
#	193300
#	206306
#	221426
#
# Disc length: 3084 seconds
#
# Revision: 0
# Processed by: cddbd v1.5.2PL0 Copyright (c) Steve Scherf et al.
# Submitted via: dBpowerAMP V4.0
#
DISCID=f80c0a12
DTITLE=Jeffrey de Bruyn - Onvergeetlike Goues CD1
DYEAR=2007
DGENRE=Country
TTITLE0=An old pair of shoes
TTITLE1='Til a tear becomes a rose
TTITLE2=Today I started loving you again
TTITLE3=Her name is...
TTITLE4=My special prayer
TTITLE5=Four walls
TTITLE6=He'll have to go
TTITLE7=Moonlight and roses
TTITLE8=Am I losing you
TTITLE9=I'm leaving it up to you
TTITLE10=Blue side of lonesome
TTITLE11=I won't forget you
TTITLE12=Together again
TTITLE13=Just someone I used to know
TTITLE14=It's a cheating situation
TTITLE15=Distant drums
TTITLE16=Help me make it through the night
TTITLE17=It's only make believe
EXTD=
EXTT0=
EXTT1=
EXTT2=
EXTT3=
EXTT4=
EXTT5=
EXTT6=
EXTT7=
EXTT8=
EXTT9=
EXTT10=
EXTT11=
EXTT12=
EXTT13=
EXTT14=
EXTT15=
EXTT16=
EXTT17=
PLAYORDER=
